<?xml version="1.0" encoding="UTF-8"?>
<svg id="Layer_1" data-name="Layer 1" xmlns="http://www.w3.org/2000/svg" viewBox="0 0 1773 1773">
  <defs>
    <style>
      .cls-1 {
        fill: #3198a7;
      }
    </style>
  </defs>
  <path class="cls-1" d="m752.66,1564.51c27.28,2.27,56.36,7.99,80.5,21.5,13.41,7.51,24.7,18.57,27.57,34.25.09.48.1.98.01,1.47-4.43,25.66-32.84,39.44-55.18,46.11-32.88,9.83-68.01,12.4-102.3,10.21-15.92-1.02-32.04-3.49-48.35-7.42-24.29-5.86-59.76-20.07-64.94-47.84-.28-1.53-.15-3.33.39-5.4,6.79-25.77,37.46-38.66,60.89-44.92,15.3-4.09,31.02-6.75,47.17-7.96.3-.02.53-.27.53-.57V94.74c0-.32.26-.58.57-.58h480.56c.18,0,.32.14.32.32h0v1162.19c0,.23-.19.42-.42.42h-427.64c-.22,0-.39.17-.39.39h0v306.26c0,.4.31.73.71.77ZM1129.19,145.93c0-.3-.24-.54-.54-.54h-374.88c-.3,0-.54.24-.54.54h0v1059.36c0,.3.24.54.54.54h374.88c.3,0,.54-.24.54-.54V145.93Z"/>
</svg>