<svg xmlns="http://www.w3.org/2000/svg" xmlns:xlink="http://www.w3.org/1999/xlink" xmlns:ev="http://www.w3.org/2001/xml-events" xmlns:meerk40t="https://github.com/meerk40t/meerk40t/wiki/Namespace" xmlns:inkscape="http://www.inkscape.org/namespaces/inkscape" version="1.1" style="" viewBox="3863.44 102160.7 99341.29 26845.21"><rect id="backgroundrect" width="100%" height="100%" x="0" y="0" fill="none" stroke="none"/>
	
	
	
	
	
	
<g class="currentLayer" style=""><title>Layer 1</title><g type="op raster" color="black" stopop="False" allowed_attributes="[]" output="True" speed="200.0" power="200.0" dwell_time="50.0" id="meerk40t:3" raster_preference_top="False" dpi="200" dangerous="False" use_grayscale="True" consider_laserspot="False" lock="False" references="pAJoxi8fd paVchPQbO p147nTKcC6 pGJewaBgh pnETZVAuq phs6FL342 pSZNYM21o pVKR3Bm4r pZnUcoHBJ pUQkltWsJ"/><g type="op engrave" label="Engrave ({percent}, {speed}mm/s)" speed="15.0" color="#0000ff00" frequency="30.0" id="E1" dangerous="False" allowed_attributes="['stroke']" lock="False" power="1000" hex_color="#0000ff00" output="True" dwell_time="50.0" passes_custom="False" passes="2" references="meerk40t:6 meerk40t:7"/><g type="op cut" label="Cut ({percent}, {speed}mm/s)" speed="2" color="#ff004000" frequency="30.0" dangerous="False" kerf="0.0" allowed_attributes="['stroke']" id="C2" lock="False" power="1000" hex_color="#ff004000" dwell_time="50.0"/><g type="op cut" label="Cut ({percent}, {speed}mm/s)" speed="1" color="#ff000000" frequency="30.0" dangerous="False" kerf="0.0" allowed_attributes="['stroke']" id="C1" lock="False" power="1000" hex_color="#ff000000" output="True" dwell_time="50.0"/><g label_display="False" id="svg_2" class="" fill="#000000" fill-opacity="1">
		<path d="M9482.892673023354,128960.78676771755 C7550.26285340092,128749.52763763737 6204.4639506678905,128139.22348407238 5179.465949167734,127028.15694809511 C4616.108268953907,126417.85279453015 4154.467947667576,125651.06039646133 4279.658543270649,125525.86980085824 C4326.605016621801,125486.7477397323 5085.573002465429,125103.35154069788 5977.555996137322,124673.00886831232 C7589.384914526883,123890.56764579311 7589.384914526883,123890.56764579311 7784.995220156681,124164.42207367484 C8348.352900370508,124954.68770841922 9404.648550771435,125400.67920525518 10734.798629054083,125400.67920525518 C11493.766614897711,125400.67920525518 11595.483973825205,125377.2059685796 12080.597531787113,125150.29801404903 C12784.794632054396,124821.67270059096 13348.152312268223,124289.6126692779 13543.762617898024,123757.55263796485 C13684.602037951481,123374.15643893044 13848.914694680516,121840.5716427928 13739.372923527826,121840.5716427928 C13715.899686852248,121840.5716427928 13582.884679023984,121926.6401772699 13449.86967119572,122028.3575361974 C12659.604036451325,122623.012865312 11838.040752806159,122849.92081984258 10296.631544443328,122912.5161176441 C8880.412931683568,122967.28700322045 8207.513480317051,122849.92081984258 7245.110776618432,122380.45608633105 C4889.962696835628,121230.26748922782 3567.6370307781726,118593.4405693381 3919.7355809118144,115737.53010714301 C4115.345886541616,114188.29648655499 4670.87915453025,113038.10788945176 5766.296866057137,111942.69017792487 C6540.913676351149,111160.24895540567 7135.5690054657425,110800.32599304683 8152.74259474071,110479.52509181396 C8982.130290611065,110221.3194883826 10570.485972325048,110221.3194883826 11462.46896599694,110479.52509181396 C12197.963715164995,110690.78422189414 12753.49698315363,110956.81423755067 13285.557014466689,111363.68367326065 C13504.640556772065,111535.82074221488 13708.07527462706,111668.83575004314 13731.548511302633,111668.83575004314 C13762.8461602034,111668.83575004314 13786.319396878978,111441.92779551257 13786.319396878978,111160.24895540567 L13786.319396878978,110651.66216076817 L17855.013753978837,110651.66216076817 L17855.013753978837,117365.00784998294 C17855.013753978837,123906.2164702435 17847.18934175365,124086.17795142291 17690.701097249806,124657.36004386193 C17236.88518818867,126300.48661115226 16290.131308940432,127419.37755935472 14678.30239055087,128209.64319409912 C13551.587030123217,128765.17646208775 12675.25286090171,128968.61117994275 11243.385423691565,128999.90882884352 C10601.783621225819,129015.5576532939 9803.693574256231,128999.90882884352 9482.892673023354,128960.78676771755 L9482.892673023354,128960.78676771755 M12315.329898542874,119117.67618842598 C12909.985227657471,118828.17293609386 13293.381426691878,118429.12791260907 13614.182327924755,117779.70169791812 C13794.143809104171,117404.1299111089 13825.441458004938,117247.64166660508 13817.617045779745,116637.33751304008 C13817.617045779745,115706.23245824224 13575.060266798791,115135.05036580321 12925.634052107853,114540.39503668863 C10946.057759134266,112709.4825759937 7808.468456832259,114469.9753266619 8301.406427019356,117130.27548322719 C8575.26085490108,118616.91380601368 9600.258856401237,119446.30150188404 11126.019240313683,119399.35502853288 C11697.201332752702,119375.8817918573 11869.33840170693,119336.75973073134 12315.329898542874,119117.67618842598 L12315.329898542874,119117.67618842598 " stroke_scale="True" mktablength="5160.23622047244" mktabpositions="" type="elem path" id="paVchPQbO" lock="False" hidden="False" label_display="False" points_dirty="True" stroke-linecap="butt" stroke-linejoin="round" fill-rule="nonzero" fill="#000000" bounds="3863.4368218095774, 110285.87088924045, 17855.013753978837, 129005.90551181108" paint_bounds="3863.4368218095774, 110285.87088924045, 17855.013753978837, 129005.90551181108" fill-opacity="1"/>
		<path d="M36320.62660543206,122889.04288096853 C35186.08683277921,122669.95933866316 34184.56206795463,122137.89930735009 33347.34995985908,121292.86278702936 C32455.36696618719,120393.05538113228 32001.551057126046,119610.61415861307 31649.452506992406,118311.76172923119 C31430.368964687033,117521.49609448679 31453.842201362604,115667.11039711628 31688.57456811837,114798.60064011996 C32142.390477179506,113132.00083615405 33276.93024983235,111661.01133781795 34677.50003814173,110933.3410008751 C35647.72715406554,110424.75420623762 36218.90924650456,110299.56361063453 37494.28843921086,110307.38802285973 C38511.462028485825,110315.21243508492 38691.42350966524,110330.8612595353 39254.78118987907,110526.4715651651 C39982.45152682193,110776.85275637126 40444.09184810826,111019.4095353522 40960.50305497093,111449.75220773777 C41328.25042955496,111754.90428452025 41328.25042955496,111754.90428452025 41328.25042955496,111207.19542875682 L41328.25042955496,110651.66216076817 L45475.18890890674,110651.66216076817 L45475.18890890674,122623.012865312 L41406.494551806885,122623.012865312 L41406.494551806885,121957.93782617067 C41406.494551806885,121590.19045158665 41383.02131513131,121292.86278702936 41359.54807845573,121292.86278702936 C41336.07484178015,121292.86278702936 41101.342475024394,121480.64868043397 40850.961283818244,121715.38104718973 C40373.67213808153,122145.72371957528 39685.123862264634,122529.1199186097 39004.399998672925,122748.20346091507 C38636.6526240889,122873.39405651814 36743.144865592425,122967.28700322045 36320.62660543206,122889.04288096853 L36320.62660543206,122889.04288096853 M39841.61210676847,119164.62266177712 C40381.49655030672,118922.06588279616 40866.61010826863,118444.77673705945 41148.28894837554,117912.7167057464 C41445.61661293284,117325.88578885699 41500.38749850919,116214.81925287972 41250.00630730304,115565.39303818878 C41023.098352772475,114962.913296849 40498.862733684604,114391.73120440997 39896.38299234482,114094.40353985268 C38425.39349400871,113382.3820273602 36750.96927781762,113984.86176869998 36062.421002000716,115487.14891593685 C35819.864223019766,116011.38453502473 35819.864223019766,117255.46607883027 36070.24541422591,117795.3505223685 C36414.51955213436,118546.49409598694 36899.63311009626,119000.31000504809 37674.24992039028,119274.1644329298 C38268.905249504875,119485.42356301 39262.60560210426,119438.47708965885 39841.61210676847,119164.62266177712 L39841.61210676847,119164.62266177712 " stroke_scale="True" mktablength="5160.23622047244" mktabpositions="" type="elem path" id="p147nTKcC6" lock="False" hidden="False" label_display="False" points_dirty="True" stroke-linecap="butt" stroke-linejoin="round" fill-rule="nonzero" fill="#000000" bounds="31498.024428416178, 110307.04894782425, 45475.18890890674, 122917.65613416216" paint_bounds="31498.024428416178, 110307.04894782425, 45475.18890890674, 122917.65613416216" fill-opacity="1"/>
		<path d="M68439.83878984538,122810.79875871661 C66342.89631349393,122341.33402520508 64363.320020520325,120706.03187013995 63674.77174470343,118882.9438216702 C63330.49760679498,117959.66317909755 63283.55113344383,117685.80875121582 63283.55113344383,116637.33751304008 C63283.55113344383,115095.92830467726 63635.64968357747,114055.28147872671 64543.28150169974,112920.74170607387 C65490.03538094798,111731.43104784467 66624.57515360083,110956.81423755067 68064.26700303616,110526.4715651651 C68666.74674437594,110338.6856717605 68893.65469890652,110315.21243508492 69887.3550515059,110315.21243508492 C70794.98686962819,110307.38802285973 71154.90983198702,110338.6856717605 71702.61868775045,110479.52509181396 C72539.830795846,110682.95980966894 73423.98937729272,111027.23394757739 73690.01939294924,111238.4930776576 C73893.45411080425,111402.80573438661 73893.45411080425,111402.80573438661 73212.73024721252,112764.25346157003 C72837.1584604033,113515.39703518846 72524.18197139562,114141.35001320383 72508.53314694524,114156.99883765422 C72500.70873472004,114164.82324987941 72305.09842909026,114086.57912762748 72070.36606233448,113984.86176869998 C71209.68071756337,113585.8167452152 69981.24799820821,113570.16792076481 69253.57766126536,113945.73970757403 C67899.95434630715,114634.28798339092 67305.29901719253,116246.11690178048 67860.83228518118,117724.93081234179 C68072.09141526135,118311.76172923119 68737.16645440267,119031.60765394886 69308.3485468417,119297.63766960538 C70090.78976936091,119673.2094564146 71233.15395423895,119634.08739528863 72117.31253568563,119219.39354735347 C72328.57166576583,119117.67618842598 72508.53314694524,119039.43206617405 72516.35755917043,119047.25647839924 C72524.18197139562,119055.08089062443 72837.1584604033,119696.68269309017 73204.90583498732,120471.29950338419 C73838.6832252279,121785.80075721645 73877.80528635386,121887.51811614395 73744.79027852559,121981.41106284625 C73478.76026286907,122184.84578070125 72766.7387503766,122474.34903303336 72015.59517675816,122669.95933866316 C71029.71923638394,122935.98935431968 69292.69972239132,122998.58465212122 68439.83878984538,122810.79875871661 L68439.83878984538,122810.79875871661 " stroke_scale="True" mktablength="5160.23622047244" mktabpositions="" type="elem path" id="pVKR3Bm4r" lock="False" hidden="False" label_display="False" points_dirty="True" stroke-linecap="butt" stroke-linejoin="round" fill-rule="nonzero" fill="#000000" bounds="63283.55113344383, 110314.10110494841, 73808.41308886037, 122919.0445788088" paint_bounds="63283.55113344383, 110314.10110494841, 73808.41308886037, 122919.0445788088" fill-opacity="1"/>
		<path d="M79276.64972173635,122818.6231709418 C78994.97088162944,122756.02787314027 78431.61320141563,122536.94433083489 78024.74376570564,122341.33402520508 C77398.79078769026,122028.3575361974 77171.8828331597,121856.22046724318 76577.22750404509,121261.56513812859 C75966.92335048012,120651.2609845636 75810.43510597627,120432.17744225822 75458.33655584263,119727.98034199094 C74918.4521123044,118648.21145491445 74808.9103411517,118178.74672140292 74761.96386780054,116926.8407653722 C74699.368569999,115354.1339081086 74965.39858565555,114250.89178435653 75693.06892259841,113069.40553835253 C76898.02840527799,111121.1268942797 78783.71175154927,110150.89977835589 81115.38659465648,110283.91478618415 C82304.69725288567,110362.15890843607 83188.85583433238,110675.13539744375 84080.83882800429,111355.85926103545 L84597.25003486694,111739.25546006986 L84597.25003486694,110651.66216076817 L88744.18851421872,110651.66216076817 L88744.18851421872,122623.012865312 L84675.49415711887,122623.012865312 L84675.49415711887,121957.93782617067 C84675.49415711887,121590.19045158665 84644.1965082181,121292.86278702936 84612.89885931733,121292.86278702936 C84573.77679819136,121292.86278702936 84448.58620258831,121402.40455818204 84315.57119476004,121535.41956601031 C83955.6482324012,121918.81576504472 83118.43612430565,122427.4025596822 82484.6587340651,122662.13492643797 C81976.07193942761,122849.92081984258 81756.98839712224,122881.21846874333 80841.53216677476,122904.69170541891 C80113.8618298319,122928.16494209449 79628.74827186999,122896.86729319372 79276.64972173635,122818.6231709418 L79276.64972173635,122818.6231709418 M83126.26053653084,119156.79824955192 C83642.67174339353,118906.41705834577 84229.50266028292,118303.937317006 84464.2350270387,117787.52611014331 C84605.07444709213,117482.37403336083 84636.3720959929,117278.93931550584 84636.3720959929,116598.21545191413 C84636.3720959929,115815.77422939493 84628.54768376771,115753.1789315934 84370.34208033638,115283.71419808187 C84049.54117910351,114696.88328119247 83634.84733116833,114305.66266993286 83040.19200205372,114031.80824205113 C82672.4446274697,113851.84676087173 82492.4831462903,113820.54911197096 81897.82781717568,113820.54911197096 C81256.22601470994,113820.54911197096 81138.85983133205,113844.02234864654 80669.39509782055,114078.75471540229 C79722.6412185723,114540.39503668863 79206.23001170962,115322.83625920783 79135.81030168291,116410.42955850952 C79057.56617943099,117771.87728569293 79620.9238596448,118726.45557716637 80818.05893009919,119227.21795957866 C81209.27954135879,119391.53061630769 81373.59219808783,119415.00385298327 81983.8963516528,119391.53061630769 C82562.90285631703,119375.8817918573 82766.33757417201,119328.93531850615 83126.26053653084,119156.79824955192 L83126.26053653084,119156.79824955192 " stroke_scale="True" mktablength="5160.23622047244" mktabpositions="" type="elem path" id="pZnUcoHBJ" lock="False" hidden="False" label_display="False" points_dirty="True" stroke-linecap="butt" stroke-linejoin="round" fill-rule="nonzero" fill="#000000" bounds="74753.13338630131, 110271.85926511794, 88744.18851421872, 122912.31548756745" paint_bounds="74753.13338630131, 110271.85926511794, 88744.18851421872, 122912.31548756745" fill-opacity="1"/>
		<path d="M20671.802155047975,122623.012865312 L20671.802155047975,110651.66216076817 L24818.740634399757,110651.66216076817 L24818.740634399757,112341.73520140967 L25507.288910216652,111661.01133781795 C26195.837186033554,110980.28747422624 26602.706621743542,110722.08187079491 27400.796668713127,110448.2274429132 C27971.978761152146,110252.61713728338 29208.23589273249,110252.61713728338 29865.48651964862,110448.2274429132 C30233.233894232646,110557.76921406588 31023.499528977045,110902.04335197432 31140.865712354927,111003.76071090181 C31156.514536805305,111019.4095353522 30773.118337770895,111801.8507578714 30295.829192034187,112756.42904934484 C29435.14384726306,114493.44856333747 29435.14384726306,114493.44856333747 29098.6941215798,114297.83825770767 C27721.597569946003,113491.9237985129 25812.440986999143,113851.84676087173 25209.96124565936,115033.33300687572 C24834.389458850143,115768.82775604377 24818.740634399757,115972.26247389877 24818.740634399757,119391.53061630769 L24818.740634399757,122623.012865312 L20671.802155047975,122623.012865312 L20671.802155047975,122623.012865312 " stroke_scale="True" mktablength="5160.23622047244" mktabpositions="" type="elem path" id="pGJewaBgh" lock="False" hidden="False" label_display="False" points_dirty="True" stroke-linecap="butt" stroke-linejoin="round" fill-rule="nonzero" fill="#000000" bounds="20671.802155047975, 110301.51971369084, 31141.32829857503, 122623.012865312" paint_bounds="20671.802155047975, 110301.51971369084, 31141.32829857503, 122623.012865312" fill-opacity="1"/>
		<path d="M48996.17441024316,122623.012865312 L48996.17441024316,113781.427050845 L47274.80372070091,113781.427050845 L47274.80372070091,110651.66216076817 L48980.52558579278,110651.66216076817 L49019.64764691874,108640.78821889382 C49058.769708044696,106489.074856966 49105.71618139585,106144.80071905756 49520.410029331026,105104.15389310702 C50146.363007346394,103523.62262361823 51241.78071887328,102553.39550769443 52751.89227833534,102232.59460646154 C53972.5005854653,101982.21341525539 56022.49658846562,102412.55608764096 56883.18193323674,103108.92877568305 C57063.143414416154,103257.5926079617 57063.143414416154,103257.5926079617 56382.41955082445,104665.98680849627 C56006.847764015234,105440.60361879028 55693.87127500754,106090.02983348121 55678.22245055716,106105.6786579316 C55670.398038331965,106121.32748238198 55490.43655715255,106066.55659680565 55287.00183929757,105988.31247455372 C54801.888281335654,105800.52658114911 54011.62264659126,105800.52658114911 53729.94380648435,105988.31247455372 C53612.57762310647,106066.55659680565 53440.44055415224,106293.46455133622 53354.37201967513,106489.074856966 C53197.883775171285,106825.52458264926 53182.2349507209,107005.48606382869 53158.76171404533,108758.1544022717 L53127.46406514456,110651.66216076817 L55881.65716841215,110651.66216076817 L55881.65716841215,113781.427050845 L53143.112889594944,113781.427050845 L53143.112889594944,122623.012865312 L48996.17441024316,122623.012865312 L48996.17441024316,122623.012865312 " stroke_scale="True" mktablength="5160.23622047244" mktabpositions="" type="elem path" id="pnETZVAuq" lock="False" hidden="False" label_display="False" points_dirty="True" stroke-linecap="butt" stroke-linejoin="round" fill-rule="nonzero" fill="#000000" bounds="47274.80372070091, 102160.69972395444, 56984.65023105174, 122623.012865312" paint_bounds="47274.80372070091, 102160.69972395444, 56984.65023105174, 122623.012865312" fill-opacity="1"/>
		<rect x="8610" y="7160" rx="0" ry="0" width="530" height="1530" transform="matrix(7.824412225192041,0,0,7.824412225192041,-10312.870256712507,54628.87062839317) " stroke_scale="True" mktablength="5160.23622047244" mktabpositions="" type="elem rect" id="pSZNYM21o" lock="False" hidden="False" label_display="False" points_dirty="True" stroke-linecap="butt" stroke-linejoin="round" fill-rule="evenodd" fill="#000000" bounds="57055.31900219096, 110651.66216076817, 61202.25748154274, 122623.012865312" paint_bounds="57055.31900219096, 110651.66216076817, 61202.25748154274, 122623.012865312" fill-opacity="1"/>
		<path d="M91404.48867078402,114642.11239561612 L91404.48867078402,105644.03833664527 L92421.66226005898,105644.03833664527 C93438.83584933396,105644.03833664527 93438.83584933396,105644.03833664527 93438.83584933396,105957.01482565296 C93438.83584933396,106269.99131466064 93438.83584933396,106269.99131466064 93783.10998724241,106003.9612990041 C94315.17001855545,105604.91627551931 94808.10798874256,105464.07685546586 95614.02244793734,105503.19891659182 C96130.43365480003,105526.6721532674 96388.63925823136,105581.44303884375 96685.96692278865,105722.28245889719 C97202.37812965133,105972.66365010335 97804.85787099111,106590.79221589351 98094.36112332321,107169.79872055772 C98321.2690778538,107615.79021739366 98329.09349007899,107686.2099274204 98329.09349007899,108617.31498221825 C98329.09349007899,109548.4200370161 98313.4446656286,109618.83974704283 98094.36112332321,110064.83124387878 C97969.17052772015,110323.03684731011 97664.01845093764,110729.9062830201 97413.6372597315,110972.46306200104 C96826.80634284212,111559.29397889046 96310.39513597943,111762.72869674544 95394.93890563195,111770.55310897063 C94675.09298091428,111770.55310897063 94213.45265962798,111629.71368891718 93697.04145276529,111230.6686654324 C93438.83584933396,111035.05835980258 93438.83584933396,111035.05835980258 93438.83584933396,112834.67317159676 L93438.83584933396,114642.11239561612 L91404.48867078402,114642.11239561612 L91404.48867078402,114642.11239561612 M95449.7097912083,109861.39652602377 C96419.93690713213,109391.93179251226 96435.58573158251,107866.17140859981 95473.18302788388,107388.8822628631 C95027.19153104792,107154.14989610734 94573.37562198681,107161.97430833253 94135.20853737605,107388.8822628631 C93626.62174273856,107654.91227851962 93423.18702488358,108046.13288977923 93454.48467378435,108695.55910447017 C93485.78232268512,109313.68767026035 93673.56821608971,109618.83974704283 94158.68177405163,109861.39652602377 C94581.200034212,110072.65565610398 95019.36711882273,110072.65565610398 95449.7097912083,109861.39652602377 L95449.7097912083,109861.39652602377 " stroke_scale="True" mktablength="5160.23622047244" mktabpositions="" type="elem path" id="pUQkltWsJ" lock="False" hidden="False" label_display="False" points_dirty="True" stroke-linecap="butt" stroke-linejoin="round" fill-rule="nonzero" fill="#000000" bounds="91404.48867078402, 105496.91739971764, 98329.09349007899, 114642.11239561612" paint_bounds="91404.48867078402, 105496.91739971764, 98329.09349007899, 114642.11239561612" fill-opacity="1"/>
		<path d="M100911.14952439236,111653.18692559276 C100285.19654637697,111426.27897106219 99893.9759351174,110862.92129084838 99768.78533951432,110002.23594607724 C99729.66327838835,109736.20593042072 99698.36562948758,109000.71118125266 99698.36562948758,108366.9337910121 C99698.36562948758,107208.92078168367 99698.36562948758,107208.92078168367 99268.02295710202,107208.92078168367 C98837.68028471645,107208.92078168367 98837.68028471645,107208.92078168367 98837.68028471645,106426.47955916448 C98837.68028471645,105644.03833664527 98837.68028471645,105644.03833664527 99268.02295710202,105644.03833664527 C99698.36562948758,105644.03833664527 99698.36562948758,105644.03833664527 99698.36562948758,104509.49856399243 L99698.36562948758,103374.95879133958 L101810.95693028942,103374.95879133958 L101810.95693028942,105644.03833664527 L102436.9099083048,105644.03833664527 C103062.86288632016,105644.03833664527 103062.86288632016,105644.03833664527 103062.86288632016,106426.47955916448 C103062.86288632016,107208.92078168367 103062.86288632016,107208.92078168367 102429.08549607961,107208.92078168367 L101803.13251806423,107208.92078168367 L101826.60575473981,108468.6511499396 C101850.07899141539,109618.83974704283 101865.72781586577,109736.20593042072 102006.56723591924,109837.9232893482 C102155.2310681979,109947.4650605009 102264.77283935057,109947.4650605009 102632.5202139346,109830.09887712302 C102773.35963398806,109790.97681599706 102812.48169511402,109869.22093824897 103031.56523741939,110589.06686296663 C103274.12201640036,111394.98132216142 103274.12201640036,111394.98132216142 102953.32111516746,111551.46956666527 C102577.74932835824,111731.43104784467 101294.54572342677,111794.02634564621 100911.14952439236,111653.18692559276 L100911.14952439236,111653.18692559276 " stroke_scale="True" mktablength="5160.23622047244" mktabpositions="" type="elem path" id="pAJoxi8fd" lock="False" hidden="False" label_display="False" points_dirty="True" stroke-linecap="butt" stroke-linejoin="round" fill-rule="nonzero" fill="#000000" bounds="98837.68028471645, 103374.95879133958, 103204.72440944881, 111730.34661148724" paint_bounds="98837.68028471645, 103374.95879133958, 103204.72440944881, 111730.34661148724" fill-opacity="1"/>
		<path d="M58612.37703500418,108038.30847755403 C57203.98283446961,107662.73669074482 56445.01484862598,106316.9377880118 56851.88428433597,104924.19241192761 C57008.372528839805,104384.30796838936 57540.432560152876,103766.17940259918 58103.7902403667,103468.85173804188 C58440.23996604996,103288.89025686248 58604.55262277899,103257.5926079617 59167.910302992816,103257.5926079617 C59715.61915875626,103257.5926079617 59903.405052160866,103288.89025686248 60216.38154116854,103445.3785013663 C60670.19745022969,103672.28645589689 61147.486595966395,104141.7511894084 61382.21896272216,104587.74268624434 C61609.12691725273,105025.9097708551 61656.07339060389,105964.83923787816 61483.936321649664,106489.074856966 C61233.555130443514,107240.21843058444 60482.41155682508,107889.64464527539 59653.023860954716,108061.78171422961 C59152.26147854243,108163.49907315712 59074.017356290504,108163.49907315712 58612.37703500418,108038.30847755403 L58612.37703500418,108038.30847755403 " stroke_scale="True" mktablength="5160.23622047244" mktabpositions="" type="elem path" id="phs6FL342" lock="False" hidden="False" label_display="False" points_dirty="True" stroke-linecap="butt" stroke-linejoin="round" fill-rule="nonzero" fill="#000000" bounds="56742.47184231096, 103257.5926079617, 61587.88064649884, 108135.36363643805" paint_bounds="56742.47184231096, 103257.5926079617, 61587.88064649884, 108135.36363643805" fill-opacity="1"/>
	</g></g></svg>